<svg width="14" height="10" viewBox="0 0 14 10" fill="none" xmlns="http://www.w3.org/2000/svg">
<path d="M5.44684 9.69671C5.15394 9.9896 4.67907 9.98961 4.38618 9.69671L0.22991 5.54048L0.219664 5.53042C0.0714779 5.38224 -0.00173378 5.18747 2.67029e-05 4.99325C0.00169945 4.80354 0.0749121 4.61433 0.219666 4.46958L0.229808 4.45962L4.38618 0.303287C4.67907 0.0103941 5.15394 0.010396 5.44684 0.30329C5.73973 0.596185 5.73973 1.07106 5.44683 1.36395L2.56076 4.25L13.25 4.25C13.6642 4.25 14 4.58579 14 5C14 5.41421 13.6642 5.75 13.25 5.75L2.56076 5.75L5.44683 8.63605C5.73973 8.92894 5.73973 9.40382 5.44684 9.69671Z" fill="#F7F7F7"/>
</svg>
